<svg xmlns="http://www.w3.org/2000/svg" width="1200" height="1500" viewBox="0 0 1200 1500" role="img" aria-labelledby="title desc">
<title id="title">Abstract barber portrait</title><desc id="desc">A generic charcoal and gold editorial illustration.</desc>
<defs><linearGradient id="bg" x1="0" y1="0" x2="1" y2="1"><stop stop-color="#24272b"/><stop offset="1" stop-color="#0f1012"/></linearGradient><radialGradient id="glow" cx="50%" cy="30%" r="60%"><stop stop-color="#b7914b" stop-opacity=".42"/><stop offset="1" stop-color="#b7914b" stop-opacity="0"/></radialGradient></defs>
<rect width="1200" height="1500" fill="url(#bg)"/><rect width="1200" height="1500" fill="url(#glow)"/>
<g fill="none" stroke="#d9c089" stroke-width="9" opacity=".9"><path d="M394 520c18-191 131-308 309-276 144 26 230 153 205 315-10 64-37 117-74 161-14 16-21 37-19 58l10 98c8 83-45 157-125 174l-98 21c-75 16-151-25-178-97l-45-120c-11-29-30-54-55-72-67-50-101-139-85-224 18-98 70-165 155-202z"/><path d="M455 553c95-79 240-91 350-18"/><path d="M510 681c29 25 65 33 109 24m93-25c30 24 65 31 105 20"/><path d="M640 728c-7 58-6 105 3 143"/><path d="M562 899c62 44 128 47 198 8"/><path d="M483 1007c-38 78-54 165-49 260m326-275c49 83 72 173 70 270"/></g>
<g fill="#f4f0e8"><circle cx="575" cy="679" r="10"/><circle cx="759" cy="676" r="10"/></g>
<path d="M414 490c18-158 141-273 300-267 116 4 220 73 268 179-98-79-211-105-338-74-96 23-172 78-230 162z" fill="#111214"/>
<path d="M442 1078c120 78 243 78 369-2l177 424H267z" fill="#17191c"/>
<path d="M580 1053l67 133 70-136" fill="none" stroke="#b7914b" stroke-width="12"/>
<text x="80" y="1410" fill="#f4f0e8" opacity=".6" font-family="Arial,sans-serif" font-size="32" letter-spacing="8">YOUR BARBERSHOP</text>
</svg>
